<svg xmlns="http://www.w3.org/2000/svg" width="1300" height="3" viewBox="0 0 1300 3">
    <g id="Groupe_2" data-name="Groupe 2" transform="translate(0)">
        <path id="Layer_6" data-name="Layer 6"      d="M1183.04,0h22.28V3h-22.28Z"              fill="#808080AA" />
        <path id="Layer_7" data-name="Layer 7"      d="M1116.84,0h66.2V3h-66.2Z"                fill="#808080AA" />
        <path id="Layer_8" data-name="Layer 8"      d="M818.988,0H864.7V3H818.988Z"             fill="#808080AA" />
        <path id="Layer_9" data-name="Layer 9"      d="M902.911,0H925.2V3H902.911Z"             fill="#808080AA" />
        <path id="Layer_10" data-name="Layer 10"    d="M864.694,0h38.214V3H864.694Z"            fill="#808080AA" />
        <path id="Layer_11" data-name="Layer 11"    d="M925.218,0h61.147V3H925.218Z"            fill="#808080AA" />
        <path id="Layer_12" data-name="Layer 12"    d="M736.1,0h82.888V3H736.1Z"                fill="#808080AA" />
        <path id="Layer_13" data-name="Layer 13"    d="M688.322,0H736.08V3H688.322Z"            fill="#808080AA" />
        <path id="Layer_14" data-name="Layer 14"    d="M649.99,0h38.331V3H649.99Z"              fill="#808080AA" />
        <path id="Layer_15" data-name="Layer 15"    d="M986.364,0H1116.83V3H986.364Z"           fill="#808080AA" />
        <path id="Layer_16" data-name="Layer 16"    d="M1205.32,0H1300V3h-94.68Z"               fill="#808080AA" />
        <path id="Layer_17" data-name="Layer 17"    d="M533.024,0h22.288V3H533.024Z"            fill="#808080AA" />
        <path id="Layer_18" data-name="Layer 18"    d="M466.824,0h66.2V3h-66.2Z"                fill="#808080AA" />
        <path id="Layer_19" data-name="Layer 19"    d="M169,0h45.709V3H169Z"                    fill="#808080AA" />
        <path id="Layer_20" data-name="Layer 20"    d="M252.9,0h22.288V3H252.9Z"                fill="#808080AA" />
        <path id="Layer_21" data-name="Layer 21"    d="M214.686,0H252.9V3H214.686Z"             fill="#808080AA" />
        <path id="Layer_22" data-name="Layer 22"    d="M275.208,0h61.146V3H275.208Z"            fill="#808080AA" />
        <path id="Layer_23" data-name="Layer 23"    d="M86.089,0h82.888V3H86.089Z"              fill="#808080AA" />
        <path id="Layer_24" data-name="Layer 24"    d="M38.33,0H86.088V3H38.33Z"                fill="#808080AA" />
        <path id="Layer_25" data-name="Layer 25"    d="M0,0H38.332V3H0Z"                        fill="#808080AA" />
        <path id="Layer_26" data-name="Layer 26"    d="M336.354,0h130.47V3H336.354Z"            fill="#808080AA" />
        <path id="Layer_27" data-name="Layer 27"    d="M555.313,0H649.99V3H555.313Z"            fill="#808080AA" />
    </g>    
</svg>